<svg xmlns="http://www.w3.org/2000/svg" xmlns:xlink="http://www.w3.org/1999/xlink" width="980.91" height="977.86" viewBox="0 0 980.91 977.86">
  <defs>
    <clipPath id="clip-Mapping_-_LvL_2">
      <rect width="980.91" height="977.86"/>
    </clipPath>
  </defs>
  <g id="Mapping_-_LvL_2" data-name="Mapping - LvL 2" clip-path="url(#clip-Mapping_-_LvL_2)">
    <path id="Path_206" data-name="Path 206" d="M-872.758,1542.722s-7.856-98.042,85.3-98.8c.888,1.017,75.082-3.507,84.6,83.317-.164.421,0,37.193,0,37.193h-169.9Z" transform="translate(1006 -1231)" fill="none" stroke="#707070" stroke-width="1"/>
    <path id="Path_198" data-name="Path 198" d="M-913.183,1542.613V1426.847h745.15v115.766h45.455l-86.432,99.123h-43.656V1688.9H-558.289v19h41.667v67.18h-41.667v21.894h5.781v-7.9s159.336,13.714,102.229,107.775c-2.14.2-9.016-2.642-9.016-2.642l-6.225,19.3-17.943,10.962-6.57,24.158-21.425,12.734-10.316,23.886-20.592,10.656-10.838,21.786-26.285,10.827-9.685,20.606-23.295,8.45-13.928,20.448-23.733,6.379L-668,2103.73l-15.388,4.15v9.041s-59.222,45.049-163.962-95.464c-.768-.613-30.341-43.645-26.75-78.624.06.164,10.992,0,10.992,0v-6.789h-64.048s18.708-89.825,32.475-90.4c-.732-.112-11.523,0-11.523,0V1677.34h15.236l-32.281-126.687v-8.041Z" transform="translate(1006 -1231)" fill="none" stroke="#707070" stroke-width="1"/>
    <path id="Path_201" data-name="Path 201" d="M-760.091,1682.789V1617.26h161.516v65.529h-57.08v-23.346H-695.1v23.346Z" transform="translate(1006 -1231)" fill="none" stroke="#707070" stroke-width="1"/>
    <path id="Path_202" data-name="Path 202" d="M-531.222,1614.435H-408.8v66.29H-531.222Z" transform="translate(1006 -1231)" fill="none" stroke="#707070" stroke-width="1"/>
    <path id="Path_203" data-name="Path 203" d="M-752.895,1724.342h127.32v33.99h-127.32Z" transform="translate(1006 -1230)" fill="none" stroke="#707070" stroke-width="1"/>
    <text id="_2-1" data-name="2-1" transform="translate(204 321)" font-size="12" font-family="Helvetica" letter-spacing="0.022em"><tspan x="0" y="0">2-1</tspan></text>
    <text id="_2-2" data-name="2-2" transform="translate(380 321)" font-size="12" font-family="Helvetica" letter-spacing="0.022em"><tspan x="0" y="0">2-2</tspan></text>
    <text id="_2-3" data-name="2-3" transform="translate(535 321)" font-size="12" font-family="Helvetica" letter-spacing="0.022em"><tspan x="0" y="0">2-3</tspan></text>
    <text id="_2-4" data-name="2-4" transform="translate(694 321)" font-size="12" font-family="Helvetica" letter-spacing="0.022em"><tspan x="0" y="0">2-4</tspan></text>
    <text id="Seminar_Rooms" data-name="Seminar Rooms" transform="translate(425 292)" font-size="12" font-family="Helvetica" letter-spacing="0.022em"><tspan x="0" y="0">Seminar Rooms</tspan></text>
    <text id="_2-3-2" data-name="2-3" transform="translate(124 417)" font-size="12" font-family="Helvetica" letter-spacing="0.022em"><tspan x="0" y="0">2-3</tspan></text>
    <text id="_2-4-2" data-name="2-4" transform="translate(190 417)" font-size="12" font-family="Helvetica" letter-spacing="0.022em"><tspan x="0" y="0">2-4</tspan></text>
    <text id="_2-2-2" data-name="2-2" transform="translate(150 463)" font-size="12" font-family="Helvetica" letter-spacing="0.022em"><tspan x="0" y="0">2-2</tspan></text>
    <text id="Group_Study_Rooms" data-name="Group Study Rooms" transform="translate(120 437)" font-size="10" font-family="Helvetica" letter-spacing="0.022em"><tspan x="0" y="0">Group Study Rooms</tspan></text>
    <text id="You_Are_Here" data-name="You Are Here" transform="translate(351 480)" font-size="10" font-family="Helvetica" letter-spacing="0.022em"><tspan x="0" y="0">You Are Here</tspan></text>
    <text id="_2-7" data-name="2-7" transform="translate(488 405)" font-size="12" font-family="Helvetica" letter-spacing="0.022em"><tspan x="0" y="0">2-7</tspan></text>
    <text id="_2-6" data-name="2-6" transform="translate(526 405)" font-size="12" font-family="Helvetica" letter-spacing="0.022em"><tspan x="0" y="0">2-6</tspan></text>
    <text id="_2-5" data-name="2-5" transform="translate(566 405)" font-size="12" font-family="Helvetica" letter-spacing="0.022em"><tspan x="0" y="0">2-5</tspan></text>
    <text id="_2-1-2" data-name="2-1" transform="translate(163 573)" font-size="12" font-family="Helvetica" letter-spacing="0.022em"><tspan x="0" y="0">2-1</tspan></text>
    <text id="Group_Study_Rooms-2" data-name="Group Study Rooms" transform="translate(488 433)" font-size="10" font-family="Helvetica" letter-spacing="0.022em"><tspan x="0" y="0">Group Study Rooms</tspan></text>
    <text id="Group_Study_Rooms-3" data-name="Group Study Rooms" transform="translate(158 582)" font-size="10" font-family="Helvetica" letter-spacing="0.022em"><tspan x="0" y="8">Group </tspan><tspan x="0" y="20">Study </tspan><tspan x="0" y="32">Room</tspan></text>
    <text id="Printing_Room" data-name="Printing
Room" transform="translate(205 602)" font-size="8" font-family="Helvetica" letter-spacing="0.022em"><tspan x="-14.179" y="0">Printing</tspan><tspan x="-10.934" y="10">Room</tspan></text>
    <text id="Student_Lounge" data-name="Student Lounge" transform="translate(237 727)" font-size="10" font-family="Helvetica" letter-spacing="0.022em"><tspan x="0" y="0">Student Lounge</tspan></text>
    <g id="Group_66" data-name="Group 66" transform="translate(327.834 502)">
      <path id="Path_242" data-name="Path 242" d="M35.486,291.349a.51.51,0,0,0,.638.163,3.5,3.5,0,0,1,1.62-.413v-.965a4.468,4.468,0,0,0-2.083.532.466.466,0,0,0-.174.684Zm0,0" transform="translate(-33.403 -276.618)"/>
      <path id="Path_243" data-name="Path 243" d="M4.39,358.654v-.965a3.379,3.379,0,0,1-3.369-3.194,2.644,2.644,0,0,1,0-.422A.516.516,0,0,0,.6,353.56a.463.463,0,0,0-.542.445,3.6,3.6,0,0,0,0,.542A4.344,4.344,0,0,0,4.39,358.654Zm0,0" transform="translate(-0.049 -336.452)"/>
      <path id="Path_244" data-name="Path 244" d="M11.645,322.1a.5.5,0,0,0,.063-.33l-.025-.087a.43.43,0,0,0-.043-.088.35.35,0,0,0-.049-.077.711.711,0,0,0-.068-.069.447.447,0,0,0-.356-.1.526.526,0,0,0-.4.626.468.468,0,0,0,.095.169.453.453,0,0,0,.148.116.559.559,0,0,0,.364.033A.484.484,0,0,0,11.645,322.1Zm0,0" transform="translate(-10.145 -306.067)"/>
      <path id="Path_245" data-name="Path 245" d="M72.127,73.4H68.748a.483.483,0,1,1,0-.965h3.379a3.379,3.379,0,0,0,2.543-1.154L87.054,59.061a.482.482,0,0,1,.339-.139H89.02a3.379,3.379,0,1,0,0-6.757H85.641A3.379,3.379,0,0,0,83.1,53.318L70.714,65.54a.482.482,0,0,1-.339.139H68.748a.483.483,0,1,1,0-.965h1.429L82.4,52.657A4.319,4.319,0,0,1,85.641,51.2H89.02a4.344,4.344,0,1,1,0,8.688H87.591L75.372,71.943A4.319,4.319,0,0,1,72.127,73.4Zm0,0" transform="translate(-64.407 -51.199)"/>
      <path id="Path_246" data-name="Path 246" d="M39.925,103.673H36.546a2.413,2.413,0,0,1,0-4.827h2.3l12.8-12.715a2.393,2.393,0,0,1,1.793-.8h3.379a2.413,2.413,0,1,1,0,4.827h-2.3l-12.8,12.715A2.394,2.394,0,0,1,39.925,103.673Zm-3.379-3.861a1.448,1.448,0,1,0,0,2.9h3.379a1.449,1.449,0,0,0,1.09-.494l12.96-12.88a.483.483,0,0,1,.34-.14h2.5a1.448,1.448,0,1,0,0-2.9H53.439a1.449,1.449,0,0,0-1.09.494l-12.96,12.88a.483.483,0,0,1-.34.14Zm0,0" transform="translate(-32.205 -83.401)"/>
      <path id="Path_247" data-name="Path 247" d="M94.528,170.338H94.35a.483.483,0,0,1-.483-.483v-5.309a2.413,2.413,0,1,1,4.826,0v1.675a.483.483,0,1,1-.965,0v-1.675a1.448,1.448,0,1,0-2.9,0v4.934a.483.483,0,0,1-.3.857Zm0,0" transform="translate(-86.298 -158.064)"/>
      <path id="Path_248" data-name="Path 248" d="M104.329,114.795a1.931,1.931,0,1,1,1.931-1.931A1.931,1.931,0,0,1,104.329,114.795Zm0-2.9a.965.965,0,1,0,.965.965A.965.965,0,0,0,104.329,111.9Zm0,0" transform="translate(-94.347 -109.761)"/>
    </g>
    <g id="staircase" transform="translate(133.064 642.544)">
      <g id="Group_65" data-name="Group 65" transform="translate(0 0)">
        <path id="Path_225" data-name="Path 225" d="M22.216,4.585h-2.99a.443.443,0,0,0-.443.443V6.776H16.564V3.569L19.249,1.03a.527.527,0,0,1,.364-.145h2.6a.443.443,0,0,0,0-.885h-2.6a1.409,1.409,0,0,0-.972.387L12.73,5.977a.857.857,0,0,1-.592.235H6.817a1.388,1.388,0,0,0-.927.354L.147,11.708a.443.443,0,1,0,.59.659l2.183-1.954v5.527H.443A.443.443,0,0,0,0,16.382v5.834a.443.443,0,0,0,.443.443h3.1a.443.443,0,0,0,.265-.088l7.318-5.486h5.637a.443.443,0,0,0,.3-.115l1.3-1.186a.443.443,0,0,0-.6-.655L16.59,16.2H10.977a.442.442,0,0,0-.265.088L3.393,21.773H.885V16.825H3.363a.443.443,0,0,0,.443-.443V14.593H6.455A.443.443,0,0,0,6.9,14.15V12.464h5.76a.443.443,0,0,0,.443-.443V9.852h3.014a.457.457,0,0,0,.45-.449V7.661h2.662a.443.443,0,0,0,.443-.443V5.47h2.105v6.017L20.627,12.53a.443.443,0,0,0,.6.655l1.291-1.174a.443.443,0,0,0,.145-.327V5.028a.443.443,0,0,0-.443-.443ZM6.455,11.579a.443.443,0,0,0-.443.443v1.686H3.806V9.62L6.48,7.226A.5.5,0,0,1,6.817,7.1H9.126v4.482H6.455Zm9.224-2.612H12.657a.443.443,0,0,0-.443.443v2.169h-2.2V7.1h2.127a1.739,1.739,0,0,0,1.2-.477l2.341-2.214V8.967Z" transform="translate(0 0)"/>
        <path id="Path_226" data-name="Path 226" d="M432.776,310.3a.442.442,0,1,0-.239.578A.446.446,0,0,0,432.776,310.3Z" transform="translate(-412.811 -296.303)"/>
      </g>
    </g>
    <g id="staircase-2" data-name="staircase" transform="translate(133.064 352.544)">
      <g id="Group_65-2" data-name="Group 65" transform="translate(0 0)">
        <path id="Path_225-2" data-name="Path 225" d="M22.216,4.585h-2.99a.443.443,0,0,0-.443.443V6.776H16.564V3.569L19.249,1.03a.527.527,0,0,1,.364-.145h2.6a.443.443,0,0,0,0-.885h-2.6a1.409,1.409,0,0,0-.972.387L12.73,5.977a.857.857,0,0,1-.592.235H6.817a1.388,1.388,0,0,0-.927.354L.147,11.708a.443.443,0,1,0,.59.659l2.183-1.954v5.527H.443A.443.443,0,0,0,0,16.382v5.834a.443.443,0,0,0,.443.443h3.1a.443.443,0,0,0,.265-.088l7.318-5.486h5.637a.443.443,0,0,0,.3-.115l1.3-1.186a.443.443,0,0,0-.6-.655L16.59,16.2H10.977a.442.442,0,0,0-.265.088L3.393,21.773H.885V16.825H3.363a.443.443,0,0,0,.443-.443V14.593H6.455A.443.443,0,0,0,6.9,14.15V12.464h5.76a.443.443,0,0,0,.443-.443V9.852h3.014a.457.457,0,0,0,.45-.449V7.661h2.662a.443.443,0,0,0,.443-.443V5.47h2.105v6.017L20.627,12.53a.443.443,0,0,0,.6.655l1.291-1.174a.443.443,0,0,0,.145-.327V5.028a.443.443,0,0,0-.443-.443ZM6.455,11.579a.443.443,0,0,0-.443.443v1.686H3.806V9.62L6.48,7.226A.5.5,0,0,1,6.817,7.1H9.126v4.482H6.455Zm9.224-2.612H12.657a.443.443,0,0,0-.443.443v2.169h-2.2V7.1h2.127a1.739,1.739,0,0,0,1.2-.477l2.341-2.214V8.967Z" transform="translate(0 0)"/>
        <path id="Path_226-2" data-name="Path 226" d="M432.776,310.3a.442.442,0,1,0-.239.578A.446.446,0,0,0,432.776,310.3Z" transform="translate(-412.811 -296.303)"/>
      </g>
    </g>
    <g id="staircase-3" data-name="staircase" transform="translate(772.064 353.544)">
      <g id="Group_65-3" data-name="Group 65" transform="translate(0 0)">
        <path id="Path_225-3" data-name="Path 225" d="M22.216,4.585h-2.99a.443.443,0,0,0-.443.443V6.776H16.564V3.569L19.249,1.03a.527.527,0,0,1,.364-.145h2.6a.443.443,0,0,0,0-.885h-2.6a1.409,1.409,0,0,0-.972.387L12.73,5.977a.857.857,0,0,1-.592.235H6.817a1.388,1.388,0,0,0-.927.354L.147,11.708a.443.443,0,1,0,.59.659l2.183-1.954v5.527H.443A.443.443,0,0,0,0,16.382v5.834a.443.443,0,0,0,.443.443h3.1a.443.443,0,0,0,.265-.088l7.318-5.486h5.637a.443.443,0,0,0,.3-.115l1.3-1.186a.443.443,0,0,0-.6-.655L16.59,16.2H10.977a.442.442,0,0,0-.265.088L3.393,21.773H.885V16.825H3.363a.443.443,0,0,0,.443-.443V14.593H6.455A.443.443,0,0,0,6.9,14.15V12.464h5.76a.443.443,0,0,0,.443-.443V9.852h3.014a.457.457,0,0,0,.45-.449V7.661h2.662a.443.443,0,0,0,.443-.443V5.47h2.105v6.017L20.627,12.53a.443.443,0,0,0,.6.655l1.291-1.174a.443.443,0,0,0,.145-.327V5.028a.443.443,0,0,0-.443-.443ZM6.455,11.579a.443.443,0,0,0-.443.443v1.686H3.806V9.62L6.48,7.226A.5.5,0,0,1,6.817,7.1H9.126v4.482H6.455Zm9.224-2.612H12.657a.443.443,0,0,0-.443.443v2.169h-2.2V7.1h2.127a1.739,1.739,0,0,0,1.2-.477l2.341-2.214V8.967Z" transform="translate(0 0)"/>
        <path id="Path_226-3" data-name="Path 226" d="M432.776,310.3a.442.442,0,1,0-.239.578A.446.446,0,0,0,432.776,310.3Z" transform="translate(-412.811 -296.303)"/>
      </g>
    </g>
    <g id="Group_67" data-name="Group 67" transform="translate(258.573 417.272)">
      <g id="Group_59" data-name="Group 59">
        <path id="Path_212" data-name="Path 212" d="M8.034,36.511a3.22,3.22,0,1,0-4.8,0A5.643,5.643,0,0,0,0,41.61v3.22a2.419,2.419,0,0,0,1.61,2.277v5.774a2.414,2.414,0,0,0,4.026,1.8,2.414,2.414,0,0,0,4.026-1.8V47.108a2.419,2.419,0,0,0,1.61-2.277V41.61A5.643,5.643,0,0,0,8.034,36.511Zm-2.4-3.757a1.61,1.61,0,1,1-1.61,1.61A1.612,1.612,0,0,1,5.636,32.754ZM9.661,44.831a.806.806,0,0,1-.805.805.805.805,0,0,0-.805.805v6.441a.805.805,0,1,1-1.61,0V48.051a.805.805,0,0,0-1.61,0v4.831a.805.805,0,1,1-1.61,0V46.441a.805.805,0,0,0-.805-.805.806.806,0,0,1-.805-.805V41.61a4.026,4.026,0,0,1,8.051,0v3.22Z" transform="translate(0 -31.144)"/>
      </g>
    </g>
    <g id="Group_68" data-name="Group 68" transform="translate(308.551 576.272)">
      <g id="Group_57" data-name="Group 57">
        <path id="Path_211" data-name="Path 211" d="M308.86,44.013l-1.846-5.126a3.891,3.891,0,0,0-1.535-2.208,3.22,3.22,0,1,0-4.473,0,3.892,3.892,0,0,0-1.535,2.208l-1.846,5.127a2.416,2.416,0,0,0,1.592,3.135v5.734a2.414,2.414,0,0,0,4.026,1.8,2.414,2.414,0,0,0,4.026-1.8V47.148A2.416,2.416,0,0,0,308.86,44.013Zm-5.617-11.258a1.61,1.61,0,1,1-1.61,1.61A1.612,1.612,0,0,1,303.243,32.754Zm3.345,12.882h-.124a.805.805,0,0,0-.805.805v6.441a.805.805,0,0,1-1.61,0V48.051a.805.805,0,1,0-1.61,0v4.831a.805.805,0,1,1-1.61,0V46.441a.805.805,0,0,0-.805-.805H299.9a.806.806,0,0,1-.758-1.078c1.99-5.529,1.868-5.182,1.882-5.24a2.288,2.288,0,0,1,4.44,0c.015.058-.108-.287,1.882,5.24A.806.806,0,0,1,306.588,45.636Z" transform="translate(-297.482 -31.144)"/>
      </g>
    </g>
    <g id="disabled" transform="translate(280.916 417.58)">
      <path id="Path_249" data-name="Path 249" d="M145.034,5a2.5,2.5,0,1,0-2.5-2.5A2.5,2.5,0,0,0,145.034,5Zm0-3.532A1.033,1.033,0,1,1,144,2.5,1.034,1.034,0,0,1,145.034,1.466Zm0,0" transform="translate(-135.667)"/>
      <path id="Path_250" data-name="Path 250" d="M14.292,216.658a.733.733,0,0,0-.808.649,6.027,6.027,0,1,1-8.066-6.324.733.733,0,0,0-.5-1.376,7.493,7.493,0,1,0,10.027,7.859A.733.733,0,0,0,14.292,216.658Zm0,0" transform="translate(0 -199.464)"/>
      <path id="Path_251" data-name="Path 251" d="M159.46,135.21l-2.3-4.484a.733.733,0,0,0-.652-.4h-4.262v-3.15h3.478a.733.733,0,1,0,0-1.466h-3.478V123.9a2.248,2.248,0,1,0-4.5,0V129.4a2.4,2.4,0,0,0,2.4,2.4h5.913l2.1,4.086a.733.733,0,0,0,1.3-.67ZM149.212,129.4V123.9a.782.782,0,1,1,1.564,0v6.424h-.633A.932.932,0,0,1,149.212,129.4Zm0,0" transform="translate(-140.626 -115.794)"/>
    </g>
    <g id="disabled-2" data-name="disabled" transform="translate(458.916 514.301)">
      <path id="Path_249-2" data-name="Path 249" d="M144.86,4.649a2.325,2.325,0,1,0-2.325-2.325A2.327,2.327,0,0,0,144.86,4.649Zm0-3.286a.961.961,0,1,1-.961.961A.962.962,0,0,1,144.86,1.363Zm0,0" transform="translate(-136.146)"/>
      <path id="Path_250-2" data-name="Path 250" d="M13.295,216.163a.681.681,0,0,0-.752.6,5.607,5.607,0,1,1-7.5-5.883.682.682,0,0,0-.469-1.28,6.971,6.971,0,1,0,9.328,7.311A.681.681,0,0,0,13.295,216.163Zm0,0" transform="translate(0 -200.168)"/>
      <path id="Path_251-2" data-name="Path 251" d="M158.643,134.264l-2.144-4.171a.682.682,0,0,0-.606-.37h-3.964v-2.93h3.235a.682.682,0,1,0,0-1.363h-3.235v-1.682a2.091,2.091,0,0,0-4.182,0v5.11a2.232,2.232,0,0,0,2.229,2.229h5.5l1.954,3.8a.682.682,0,0,0,1.213-.623Zm-9.533-5.408v-5.11a.727.727,0,0,1,1.455,0v5.976h-.589A.867.867,0,0,1,149.11,128.857Zm0,0" transform="translate(-141.123 -116.203)"/>
    </g>
    <g id="elevator" transform="translate(445.084 483.297)">
      <g id="Group_63" data-name="Group 63" transform="translate(11.493 0)">
        <path id="Path_215" data-name="Path 215" d="M21.426,15.321H15.365V11.637a.468.468,0,0,0-.427-.5H6.906a.468.468,0,0,0-.427.5v3.684H.427a.468.468,0,0,0-.427.5V35.14a.468.468,0,0,0,.427.5H5.051a.4.4,0,0,0,.309-.155.552.552,0,0,0,.117-.369v-.01a.458.458,0,0,0-.447-.469l-.025,0H3.325V16.322H10.5V34.639H8.853a.38.38,0,0,0-.058,0,.471.471,0,0,0-.416.5c0,.008,0,.017,0,.025a.464.464,0,0,0,.426.475H21.426a.468.468,0,0,0,.427-.5V15.821A.468.468,0,0,0,21.426,15.321ZM21,22.624H19.382v-6.3H21Zm0,3.895H19.382V23.625H21ZM.854,16.322H2.471V34.639H.854Zm6.479-1V12.138h7.178v3.184Zm4.02,1h7.175V34.639H11.353Zm8.029,18.317V27.52H21v7.12Z" transform="translate(0 -11.137)"/>
        <path id="Path_216" data-name="Path 216" d="M463.3,280.561a.5.5,0,1,0-.189-.6A.5.5,0,0,0,463.3,280.561Z" transform="translate(-443.669 -266.211)"/>
        <path id="Path_217" data-name="Path 217" d="M197.306,43.984a.5.5,0,0,0-.754,0l-.679.778a.5.5,0,0,0,.754.658l.3-.346.3.346a.5.5,0,1,0,.754-.658Z" transform="translate(-187.541 -42.178)"/>
        <path id="Path_218" data-name="Path 218" d="M271.82,46.421a.5.5,0,0,0,.754,0l.679-.778a.5.5,0,1,0-.754-.658l-.3.346-.3-.346a.5.5,0,0,0-.754.658Z" transform="translate(-259.652 -43.129)"/>
        <path id="Path_219" data-name="Path 219" d="M154.462,480.973a.5.5,0,1,0,.2.577A.505.505,0,0,0,154.462,480.973Z" transform="translate(-147.171 -457.387)"/>
      </g>
    </g>
    <g id="elevator-2" data-name="elevator" transform="translate(304.084 395.297)">
      <g id="Group_63-2" data-name="Group 63" transform="translate(11.493 0)">
        <path id="Path_215-2" data-name="Path 215" d="M21.426,15.321H15.365V11.637a.468.468,0,0,0-.427-.5H6.906a.468.468,0,0,0-.427.5v3.684H.427a.468.468,0,0,0-.427.5V35.14a.468.468,0,0,0,.427.5H5.051a.4.4,0,0,0,.309-.155.552.552,0,0,0,.117-.369v-.01a.458.458,0,0,0-.447-.469l-.025,0H3.325V16.322H10.5V34.639H8.853a.38.38,0,0,0-.058,0,.471.471,0,0,0-.416.5c0,.008,0,.017,0,.025a.464.464,0,0,0,.426.475H21.426a.468.468,0,0,0,.427-.5V15.821A.468.468,0,0,0,21.426,15.321ZM21,22.624H19.382v-6.3H21Zm0,3.895H19.382V23.625H21ZM.854,16.322H2.471V34.639H.854Zm6.479-1V12.138h7.178v3.184Zm4.02,1h7.175V34.639H11.353Zm8.029,18.317V27.52H21v7.12Z" transform="translate(0 -11.137)"/>
        <path id="Path_216-2" data-name="Path 216" d="M463.3,280.561a.5.5,0,1,0-.189-.6A.5.5,0,0,0,463.3,280.561Z" transform="translate(-443.669 -266.211)"/>
        <path id="Path_217-2" data-name="Path 217" d="M197.306,43.984a.5.5,0,0,0-.754,0l-.679.778a.5.5,0,0,0,.754.658l.3-.346.3.346a.5.5,0,1,0,.754-.658Z" transform="translate(-187.541 -42.178)"/>
        <path id="Path_218-2" data-name="Path 218" d="M271.82,46.421a.5.5,0,0,0,.754,0l.679-.778a.5.5,0,1,0-.754-.658l-.3.346-.3-.346a.5.5,0,0,0-.754.658Z" transform="translate(-259.652 -43.129)"/>
        <path id="Path_219-2" data-name="Path 219" d="M154.462,480.973a.5.5,0,1,0,.2.577A.505.505,0,0,0,154.462,480.973Z" transform="translate(-147.171 -457.387)"/>
      </g>
    </g>
    <path id="Path_252" data-name="Path 252" d="M356.769,1631.051v44.192h-36.95v34.75l-35.658,9.787s-29.856,8.547-34.762-41.322c-.152-.22-12.029-47.406-12.029-47.406Z" transform="translate(-134 -1231.3)" fill="none" stroke="#707070" stroke-width="1"/>
    <path id="Path_253" data-name="Path 253" d="M1017.422,1543l-83.589,95.577h-91.58v-56.062h35.679v-17.928h54.983l.366-21.562Z" transform="translate(-134 -1231)" fill="none" stroke="#707070" stroke-width="1"/>
    <path id="Path_254" data-name="Path 254" d="M318.743,1708v83.594" transform="translate(-133 -1231)" fill="none" stroke="#707070" stroke-width="1"/>
    <path id="Path_255" data-name="Path 255" d="M608.778,1665H581.631v246.3H488.857" transform="translate(-134 -1231)" fill="none" stroke="#707070" stroke-width="1"/>
    <path id="Path_256" data-name="Path 256" d="M731.2,1665H858.916v-26.628" transform="translate(-134 -1231)" fill="none" stroke="#707070" stroke-width="1"/>
    <path id="Path_257" data-name="Path 257" d="M355.672,1791.594H287.465v54.07H244.634s-11.081,4.673-20.048,43.364c.029.245-9.066,30.451-11.5,46.86-.177-.148,106.948,0,106.948,0v-44.646h35.635Z" transform="translate(-134 -1231)" fill="none" stroke="#707070" stroke-width="1"/>
    <path id="Path_258" data-name="Path 258" d="M516.358,1863.741v-64.7H380.577v64.7Z" transform="translate(-134 -1231)" fill="none" stroke="#707070" stroke-width="1"/>
    <path id="Path_259" data-name="Path 259" d="M380.577,1863.741H498.023l-37.967,203.466-125.361-20.863V1936H319.635v-44.909h60.941Z" transform="translate(-134 -1231)" fill="none" stroke="#707070" stroke-width="1"/>
    <path id="Path_260" data-name="Path 260" d="M216.677,1543H267.3v21.691h52.52v12.748h36.95v54s-119.549-.282-119.539,0c-.152-.22-20.553-80.948-20.553-80.948Z" transform="translate(-134 -1231.3)" fill="none" stroke="#707070" stroke-width="1"/>
    <path id="Path_261" data-name="Path 261" d="M-872.758,1542.722s-7.856-98.042,85.3-98.8c.888,1.017,75.082-3.507,84.6,83.317-.164.421,28.585,0,28.585,0s2.967-92.051,133.553-89.672c.664.058,130.313-3.961,136.058,89.672.691-.275,25.736,0,25.736,0s7.286-86.188,91.965-83.693c.139,1.552,78.334-3.789,80.039,99.97.426-.724,0,20.915,0,20.915H-872.758Z" transform="translate(1006 -1231)" fill="none" stroke="#707070" stroke-width="1"/>
    <path id="Path_262" data-name="Path 262" d="M-674.271,1564.432c-.164.421,0-37.193,0-37.193s2.967-92.051,133.553-89.672c.664.058,130.313-3.961,136.058,89.672.691-.275,0,37.193,0,37.193h0S-674.457,1564.344-674.271,1564.432Z" transform="translate(1006 -1231)" fill="none" stroke="#707070" stroke-width="1"/>
    <path id="Path_263" data-name="Path 263" d="M-378.924,1564.432h0c.691-.275,0-37.193,0-37.193s7.286-86.188,91.965-83.693c.139,1.552,78.334-3.789,80.039,99.97.426-.724,0,20.915,0,20.915Z" transform="translate(1006 -1231)" fill="none" stroke="#707070" stroke-width="1"/>
    <path id="Path_264" data-name="Path 264" d="M581.71,1708h41.732v66.927H581.71Z" transform="translate(-134 -1231)" fill="none" stroke="#707070" stroke-width="1"/>
  </g>
</svg>
