<svg xmlns="http://www.w3.org/2000/svg" xmlns:xlink="http://www.w3.org/1999/xlink" width="980" height="976" viewBox="0 0 980 976">
  <defs>
    <clipPath id="clip-Mapping_-_LvL_3">
      <rect width="980" height="976"/>
    </clipPath>
  </defs>
  <g id="Mapping_-_LvL_3" data-name="Mapping - LvL 3" clip-path="url(#clip-Mapping_-_LvL_3)">
    <rect width="980" height="976" fill="#fff"/>
    <path id="Path_198" data-name="Path 198" d="M-913.183,1542.613V1426.847h745.15v115.766h45.455l-86.432,99.123h-43.656V1688.9H-558.289v15.647h41.343v66.393h-41.343v22.9h5.781V1784.1s162.412,18.078,105.306,112.14c-2.14.2-7.972-4.963-7.972-4.963l-4.121,17.542-20.369,10.577-7.766,24.8-24.028,17.161-5.79,17.125-24.234,13.545-9.761,21.53-25.142,9.121-11.889,20.69-23.466,8.608-12.389,21.054-23.679,4.987-18.13,21.062-15.689,3.426,4.066,6.972s-61.008,51.267-165.748-89.245c-.768-.613-34.96-48.624-31.369-83.6.06.164,11.568,0,11.568,0v-7.324h-62.417s17.076-83.086,30.843-83.657c-.732-.112-11.523,0-11.523,0v-139.4l-21.01-79.086,25.914-4.619-21.949-79.926Z" transform="translate(1023 -1213)" fill="none" stroke="#707070" stroke-width="1"/>
    <text id="_3-1" data-name="3-1" transform="translate(221 339)" font-size="12" font-family="Helvetica" letter-spacing="0.022em"><tspan x="0" y="0">3-1</tspan></text>
    <text id="_3-2" data-name="3-2" transform="translate(397 339)" font-size="12" font-family="Helvetica" letter-spacing="0.022em"><tspan x="0" y="0">3-2</tspan></text>
    <text id="_3-3" data-name="3-3" transform="translate(552 339)" font-size="12" font-family="Helvetica" letter-spacing="0.022em"><tspan x="0" y="0">3-3</tspan></text>
    <text id="_3-4" data-name="3-4" transform="translate(711 339)" font-size="12" font-family="Helvetica" letter-spacing="0.022em"><tspan x="0" y="0">3-4</tspan></text>
    <text id="Seminar_Rooms" data-name="Seminar Rooms" transform="translate(442 310)" font-size="12" font-family="Helvetica" letter-spacing="0.022em"><tspan x="0" y="0">Seminar Rooms</tspan></text>
    <path id="Path_268" data-name="Path 268" d="M-872.758,1542.722s-7.856-98.042,85.3-98.8c.888,1.017,75.082-3.507,84.6,83.317-.164.421,0,37.193,0,37.193H-820.139V1542.74Z" transform="translate(1023 -1213)" fill="none" stroke="#707070" stroke-width="1"/>
    <path id="Path_269" data-name="Path 269" d="M-674.271,1564.432c-.164.421,0-37.193,0-37.193s2.967-92.051,133.553-89.672c.664.058,130.313-3.961,136.058,89.672.691-.275,0,37.193,0,37.193h0S-674.457,1564.344-674.271,1564.432Z" transform="translate(1023 -1213)" fill="none" stroke="#707070" stroke-width="1"/>
    <path id="Path_270" data-name="Path 270" d="M-378.924,1564.432h0c.691-.275,0-37.193,0-37.193s7.286-86.188,91.965-83.693c.139,1.552,78.82-4.388,80.526,99.372-.1.034-55.591,0-55.591,0v21.513Z" transform="translate(1023 -1213)" fill="none" stroke="#707070" stroke-width="1"/>
    <path id="Path_271" data-name="Path 271" d="M-872.758,1542.722s-7.856-98.042,85.3-98.8c.888,1.017,75.082-3.507,84.6,83.317-.164.421,28.585,0,28.585,0s2.967-92.051,133.553-89.672c.664.058,130.313-3.961,136.058,89.672.691-.275,25.736,0,25.736,0s7.286-86.188,91.965-83.693c.139,1.552,78.591-4.378,80.3,99.382-.167.175-55.389-.024-55.389-.024v21.444l-558.1.084v-21.711Z" transform="translate(1023 -1213)" fill="none" stroke="#707070" stroke-width="1"/>
    <path id="Path_272" data-name="Path 272" d="M1017.422,1543l-83.589,95.577h-91.58v-56.062h35.679v-39.491h55.348Z" transform="translate(-117 -1213)" fill="none" stroke="#707070" stroke-width="1"/>
    <path id="Path_273" data-name="Path 273" d="M1172.633,1589.714l-21.826-80.092h102.975v33.291h38.1v46.8C1292.249,1589.92,1172.633,1589.714,1172.633,1589.714Z" transform="translate(-1051 -1180)" fill="none" stroke="#707070" stroke-width="1"/>
    <path id="Path_274" data-name="Path 274" d="M1291.881,1589.806h-119.5l-25.391,4.279L1168,1673.267v7.4h55.666v-42.095h68.217Z" transform="translate(-1051 -1180)" fill="none" stroke="#707070" stroke-width="1"/>
    <path id="Path_275" data-name="Path 275" d="M1168.05,1680.663,1189,1740.784V1767.4h34.67v-86.735Z" transform="translate(-1051 -1180)" fill="none" stroke="#707070" stroke-width="1"/>
    <path id="Path_276" data-name="Path 276" d="M1223.667,1754.844V1812h67.6v-57.156Z" transform="translate(-1051 -1180)" fill="none" stroke="#707070" stroke-width="1"/>
    <path id="Path_278" data-name="Path 278" d="M1178.6,1812h112.489v117.769l68.974,75.033,185.289-164.029v-21.6h-68.536V1760.79h38.66" transform="translate(-1051 -1180)" fill="none" stroke="#707070" stroke-width="1"/>
    <path id="Path_279" data-name="Path 279" d="M1315.994,1576.565v71.369h62.718v-23.213h40.958v23.213h306.318v-82.557l-252.62-1.488v12.676Z" transform="translate(-1051 -1180)" fill="none" stroke="#707070" stroke-width="1"/>
    <path id="Path_280" data-name="Path 280" d="M1320,1688.923h128.871v33.412H1320Z" transform="translate(-1051 -1180)" fill="none" stroke="#707070" stroke-width="1"/>
    <path id="Path_281" data-name="Path 281" d="M1210.687,1896.069h79.866" transform="translate(-1051 -1179.669)" fill="none" stroke="#707070" stroke-width="1"/>
    <path id="Path_282" data-name="Path 282" d="M1253.529,1853.629v42.578h37.33v-42.578Z" transform="translate(-1051 -1180)" fill="none" stroke="#707070" stroke-width="1"/>
    <path id="Path_283" data-name="Path 283" d="M1515.575,1671.658v67.252" transform="translate(-1051 -1180)" fill="none" stroke="#707070" stroke-width="1"/>
    <path id="Path_284" data-name="Path 284" d="M1315.586,1760.79h135.257v66.179H1315.586Z" transform="translate(-1051 -1180)" fill="none" stroke="#707070" stroke-width="1"/>
    <path id="Path_285" data-name="Path 285" d="M1315.586,1826.969V1913.7l43.536,50.831,124.928-106.5-33.639-31.063Z" transform="translate(-1051 -1180)" fill="none" stroke="#707070" stroke-width="1"/>
    <text id="Classrooms" transform="translate(465 429)" font-size="12" font-family="Helvetica" letter-spacing="0.022em"><tspan x="0" y="0">Classrooms</tspan></text>
    <text id="_3-4-2" data-name="3-4" transform="translate(181 449)" font-size="12" font-family="Helvetica" letter-spacing="0.022em"><tspan x="0" y="0">3-4</tspan></text>
    <text id="_3-2-2" data-name="3-2" transform="translate(141 495)" font-size="12" font-family="Helvetica" letter-spacing="0.022em"><tspan x="0" y="0">3-2</tspan></text>
    <text id="_3-3-2" data-name="3-3" transform="translate(149 472)" font-size="12" font-family="Helvetica" letter-spacing="0.022em"><tspan x="0" y="0">3-3</tspan></text>
    <text id="Group_Study_Rooms" data-name="Group Study Rooms" transform="translate(126 418)" font-size="10" font-family="Helvetica" letter-spacing="0.022em"><tspan x="0" y="8">Group </tspan><tspan x="0" y="20">Study </tspan><tspan x="0" y="32">Room</tspan></text>
    <text id="Printing_Room" data-name="Printing
Room" transform="translate(220 423)" font-size="8" font-family="Helvetica" letter-spacing="0.022em"><tspan x="-14.179" y="0">Printing</tspan><tspan x="-10.934" y="10">Room</tspan></text>
    <text id="Group_Study_Rooms-2" data-name="Group Study Rooms" transform="translate(179 589)" font-size="10" font-family="Helvetica" letter-spacing="0.022em"><tspan x="0" y="8">Group </tspan><tspan x="0" y="20">Study </tspan><tspan x="0" y="32">Room</tspan></text>
    <text id="_3-1-2" data-name="3-1" transform="translate(216 590)" font-size="12" font-family="Helvetica" letter-spacing="0.022em"><tspan x="0" y="0">3-1</tspan></text>
    <text id="Pantry" transform="translate(206 696)" font-size="10" font-family="Helvetica" letter-spacing="0.022em"><tspan x="0" y="0">Pantry</tspan></text>
    <text id="_3-1-3" data-name="3-1" transform="translate(191 744)" font-size="12" font-family="Helvetica" letter-spacing="0.022em"><tspan x="0" y="0">3-1</tspan></text>
    <text id="_3-2-3" data-name="3-2" transform="translate(358 826)" font-size="12" font-family="Helvetica" letter-spacing="0.022em"><tspan x="0" y="0">3-2</tspan></text>
    <text id="_3-3-3" data-name="3-3" transform="translate(458 740)" font-size="12" font-family="Helvetica" letter-spacing="0.022em"><tspan x="0" y="0">3-3</tspan></text>
    <text id="_3-4-3" data-name="3-4" transform="translate(535 661)" font-size="12" font-family="Helvetica" letter-spacing="0.022em"><tspan x="0" y="0">3-4</tspan></text>
    <text id="_3-5" data-name="3-5" transform="translate(450 614)" font-size="12" font-family="Helvetica" letter-spacing="0.022em"><tspan x="0" y="0">3-5</tspan></text>
    <text id="_3-6" data-name="3-6" transform="translate(378 668)" font-size="12" font-family="Helvetica" letter-spacing="0.022em"><tspan x="0" y="0">3-6</tspan></text>
    <text id="_3-7" data-name="3-7" transform="translate(289 740)" font-size="12" font-family="Helvetica" letter-spacing="0.022em"><tspan x="0" y="0">3-7</tspan></text>
    <text id="Printing_Room-2" data-name="Printing Room" transform="translate(320 615)" font-size="10" font-family="Helvetica" letter-spacing="0.022em"><tspan x="0.277" y="8">Printing </tspan><tspan x="4.333" y="20">Room</tspan></text>
    <text id="Research_Labs" data-name="Research Labs" transform="translate(275 674)" font-size="12" font-family="Helvetica" letter-spacing="0.022em"><tspan x="0" y="0">Research Labs</tspan></text>
    <text id="Meeting_Room" data-name="Meeting Room" transform="translate(344 699)" font-size="10" font-family="Helvetica" letter-spacing="0.022em"><tspan x="1.052" y="8">Meeting </tspan><tspan x="5.833" y="20">Room</tspan></text>
    <text id="You_Are_Here" data-name="You Are Here" transform="translate(384 493)" font-size="10" font-family="Helvetica" letter-spacing="0.022em"><tspan x="0" y="0">You Are Here</tspan></text>
    <text id="Group_Study_Rooms-3" data-name="Group Study Rooms" transform="translate(604 423)" font-size="10" font-family="Helvetica" letter-spacing="0.022em"><tspan x="0" y="8">Group </tspan><tspan x="0" y="20">Study </tspan><tspan x="0" y="32">Room</tspan></text>
    <text id="_3-2-4" data-name="3-2" transform="translate(434 412)" font-size="12" font-family="Helvetica" letter-spacing="0.022em"><tspan x="0" y="0">3-2</tspan></text>
    <text id="_3-1-4" data-name="3-1" transform="translate(547 413)" font-size="12" font-family="Helvetica" letter-spacing="0.022em"><tspan x="0" y="0">3-1</tspan></text>
    <text id="_3-5-2" data-name="3-5" transform="translate(607 399)" font-size="12" font-family="Helvetica" letter-spacing="0.022em"><tspan x="0" y="0">3-5</tspan></text>
    <text id="_3-6-2" data-name="3-6" transform="translate(649 420)" font-size="12" font-family="Helvetica" letter-spacing="0.022em"><tspan x="0" y="0">3-6</tspan></text>
    <g id="staircase" transform="translate(787.064 367.544)">
      <g id="Group_65" data-name="Group 65" transform="translate(0 0)">
        <path id="Path_225" data-name="Path 225" d="M22.216,4.585h-2.99a.443.443,0,0,0-.443.443V6.776H16.564V3.569L19.249,1.03a.527.527,0,0,1,.364-.145h2.6a.443.443,0,0,0,0-.885h-2.6a1.409,1.409,0,0,0-.972.387L12.73,5.977a.857.857,0,0,1-.592.235H6.817a1.388,1.388,0,0,0-.927.354L.147,11.708a.443.443,0,1,0,.59.659l2.183-1.954v5.527H.443A.443.443,0,0,0,0,16.382v5.834a.443.443,0,0,0,.443.443h3.1a.443.443,0,0,0,.265-.088l7.318-5.486h5.637a.443.443,0,0,0,.3-.115l1.3-1.186a.443.443,0,0,0-.6-.655L16.59,16.2H10.977a.442.442,0,0,0-.265.088L3.393,21.773H.885V16.825H3.363a.443.443,0,0,0,.443-.443V14.593H6.455A.443.443,0,0,0,6.9,14.15V12.464h5.76a.443.443,0,0,0,.443-.443V9.852h3.014a.457.457,0,0,0,.45-.449V7.661h2.662a.443.443,0,0,0,.443-.443V5.47h2.105v6.017L20.627,12.53a.443.443,0,0,0,.6.655l1.291-1.174a.443.443,0,0,0,.145-.327V5.028a.443.443,0,0,0-.443-.443ZM6.455,11.579a.443.443,0,0,0-.443.443v1.686H3.806V9.62L6.48,7.226A.5.5,0,0,1,6.817,7.1H9.126v4.482H6.455Zm9.224-2.612H12.657a.443.443,0,0,0-.443.443v2.169h-2.2V7.1h2.127a1.739,1.739,0,0,0,1.2-.477l2.341-2.214V8.967Z" transform="translate(0 0)"/>
        <path id="Path_226" data-name="Path 226" d="M432.776,310.3a.442.442,0,1,0-.239.578A.446.446,0,0,0,432.776,310.3Z" transform="translate(-412.811 -296.303)"/>
      </g>
    </g>
    <g id="staircase-2" data-name="staircase" transform="translate(152.064 366.544)">
      <g id="Group_65-2" data-name="Group 65" transform="translate(0 0)">
        <path id="Path_225-2" data-name="Path 225" d="M22.216,4.585h-2.99a.443.443,0,0,0-.443.443V6.776H16.564V3.569L19.249,1.03a.527.527,0,0,1,.364-.145h2.6a.443.443,0,0,0,0-.885h-2.6a1.409,1.409,0,0,0-.972.387L12.73,5.977a.857.857,0,0,1-.592.235H6.817a1.388,1.388,0,0,0-.927.354L.147,11.708a.443.443,0,1,0,.59.659l2.183-1.954v5.527H.443A.443.443,0,0,0,0,16.382v5.834a.443.443,0,0,0,.443.443h3.1a.443.443,0,0,0,.265-.088l7.318-5.486h5.637a.443.443,0,0,0,.3-.115l1.3-1.186a.443.443,0,0,0-.6-.655L16.59,16.2H10.977a.442.442,0,0,0-.265.088L3.393,21.773H.885V16.825H3.363a.443.443,0,0,0,.443-.443V14.593H6.455A.443.443,0,0,0,6.9,14.15V12.464h5.76a.443.443,0,0,0,.443-.443V9.852h3.014a.457.457,0,0,0,.45-.449V7.661h2.662a.443.443,0,0,0,.443-.443V5.47h2.105v6.017L20.627,12.53a.443.443,0,0,0,.6.655l1.291-1.174a.443.443,0,0,0,.145-.327V5.028a.443.443,0,0,0-.443-.443ZM6.455,11.579a.443.443,0,0,0-.443.443v1.686H3.806V9.62L6.48,7.226A.5.5,0,0,1,6.817,7.1H9.126v4.482H6.455Zm9.224-2.612H12.657a.443.443,0,0,0-.443.443v2.169h-2.2V7.1h2.127a1.739,1.739,0,0,0,1.2-.477l2.341-2.214V8.967Z" transform="translate(0 0)"/>
        <path id="Path_226-2" data-name="Path 226" d="M432.776,310.3a.442.442,0,1,0-.239.578A.446.446,0,0,0,432.776,310.3Z" transform="translate(-412.811 -296.303)"/>
      </g>
    </g>
    <g id="Group_69" data-name="Group 69" transform="translate(278.573 432.272)">
      <g id="Group_59" data-name="Group 59">
        <path id="Path_212" data-name="Path 212" d="M8.034,36.511a3.22,3.22,0,1,0-4.8,0A5.643,5.643,0,0,0,0,41.61v3.22a2.419,2.419,0,0,0,1.61,2.277v5.774a2.414,2.414,0,0,0,4.026,1.8,2.414,2.414,0,0,0,4.026-1.8V47.108a2.419,2.419,0,0,0,1.61-2.277V41.61A5.643,5.643,0,0,0,8.034,36.511Zm-2.4-3.757a1.61,1.61,0,1,1-1.61,1.61A1.612,1.612,0,0,1,5.636,32.754ZM9.661,44.831a.806.806,0,0,1-.805.805.805.805,0,0,0-.805.805v6.441a.805.805,0,1,1-1.61,0V48.051a.805.805,0,0,0-1.61,0v4.831a.805.805,0,1,1-1.61,0V46.441a.805.805,0,0,0-.805-.805.806.806,0,0,1-.805-.805V41.61a4.026,4.026,0,0,1,8.051,0v3.22Z" transform="translate(0 -31.144)"/>
      </g>
    </g>
    <g id="disabled" transform="translate(302.916 432.58)">
      <path id="Path_249" data-name="Path 249" d="M145.034,5a2.5,2.5,0,1,0-2.5-2.5A2.5,2.5,0,0,0,145.034,5Zm0-3.532A1.033,1.033,0,1,1,144,2.5,1.034,1.034,0,0,1,145.034,1.466Zm0,0" transform="translate(-135.667)"/>
      <path id="Path_250" data-name="Path 250" d="M14.292,216.658a.733.733,0,0,0-.808.649,6.027,6.027,0,1,1-8.066-6.324.733.733,0,0,0-.5-1.376,7.493,7.493,0,1,0,10.027,7.859A.733.733,0,0,0,14.292,216.658Zm0,0" transform="translate(0 -199.464)"/>
      <path id="Path_251" data-name="Path 251" d="M159.46,135.21l-2.3-4.484a.733.733,0,0,0-.652-.4h-4.262v-3.15h3.478a.733.733,0,1,0,0-1.466h-3.478V123.9a2.248,2.248,0,1,0-4.5,0V129.4a2.4,2.4,0,0,0,2.4,2.4h5.913l2.1,4.086a.733.733,0,0,0,1.3-.67ZM149.212,129.4V123.9a.782.782,0,1,1,1.564,0v6.424h-.633A.932.932,0,0,1,149.212,129.4Zm0,0" transform="translate(-140.626 -115.794)"/>
    </g>
    <g id="elevator" transform="translate(326.084 410.297)">
      <g id="Group_63" data-name="Group 63" transform="translate(11.493 0)">
        <path id="Path_215" data-name="Path 215" d="M21.426,15.321H15.365V11.637a.468.468,0,0,0-.427-.5H6.906a.468.468,0,0,0-.427.5v3.684H.427a.468.468,0,0,0-.427.5V35.14a.468.468,0,0,0,.427.5H5.051a.4.4,0,0,0,.309-.155.552.552,0,0,0,.117-.369v-.01a.458.458,0,0,0-.447-.469l-.025,0H3.325V16.322H10.5V34.639H8.853a.38.38,0,0,0-.058,0,.471.471,0,0,0-.416.5c0,.008,0,.017,0,.025a.464.464,0,0,0,.426.475H21.426a.468.468,0,0,0,.427-.5V15.821A.468.468,0,0,0,21.426,15.321ZM21,22.624H19.382v-6.3H21Zm0,3.895H19.382V23.625H21ZM.854,16.322H2.471V34.639H.854Zm6.479-1V12.138h7.178v3.184Zm4.02,1h7.175V34.639H11.353Zm8.029,18.317V27.52H21v7.12Z" transform="translate(0 -11.137)"/>
        <path id="Path_216" data-name="Path 216" d="M463.3,280.561a.5.5,0,1,0-.189-.6A.5.5,0,0,0,463.3,280.561Z" transform="translate(-443.669 -266.211)"/>
        <path id="Path_217" data-name="Path 217" d="M197.306,43.984a.5.5,0,0,0-.754,0l-.679.778a.5.5,0,0,0,.754.658l.3-.346.3.346a.5.5,0,1,0,.754-.658Z" transform="translate(-187.541 -42.178)"/>
        <path id="Path_218" data-name="Path 218" d="M271.82,46.421a.5.5,0,0,0,.754,0l.679-.778a.5.5,0,1,0-.754-.658l-.3.346-.3-.346a.5.5,0,0,0-.754.658Z" transform="translate(-259.652 -43.129)"/>
        <path id="Path_219" data-name="Path 219" d="M154.462,480.973a.5.5,0,1,0,.2.577A.505.505,0,0,0,154.462,480.973Z" transform="translate(-147.171 -457.387)"/>
      </g>
    </g>
    <g id="Group_70" data-name="Group 70" transform="translate(341.834 515)">
      <path id="Path_242" data-name="Path 242" d="M35.486,291.349a.51.51,0,0,0,.638.163,3.5,3.5,0,0,1,1.62-.413v-.965a4.468,4.468,0,0,0-2.083.532.466.466,0,0,0-.174.684Zm0,0" transform="translate(-33.403 -276.618)"/>
      <path id="Path_243" data-name="Path 243" d="M4.39,358.654v-.965a3.379,3.379,0,0,1-3.369-3.194,2.644,2.644,0,0,1,0-.422A.516.516,0,0,0,.6,353.56a.463.463,0,0,0-.542.445,3.6,3.6,0,0,0,0,.542A4.344,4.344,0,0,0,4.39,358.654Zm0,0" transform="translate(-0.049 -336.452)"/>
      <path id="Path_244" data-name="Path 244" d="M11.645,322.1a.5.5,0,0,0,.063-.33l-.025-.087a.43.43,0,0,0-.043-.088.35.35,0,0,0-.049-.077.711.711,0,0,0-.068-.069.447.447,0,0,0-.356-.1.526.526,0,0,0-.4.626.468.468,0,0,0,.095.169.453.453,0,0,0,.148.116.559.559,0,0,0,.364.033A.484.484,0,0,0,11.645,322.1Zm0,0" transform="translate(-10.145 -306.067)"/>
      <path id="Path_245" data-name="Path 245" d="M72.127,73.4H68.748a.483.483,0,1,1,0-.965h3.379a3.379,3.379,0,0,0,2.543-1.154L87.054,59.061a.482.482,0,0,1,.339-.139H89.02a3.379,3.379,0,1,0,0-6.757H85.641A3.379,3.379,0,0,0,83.1,53.318L70.714,65.54a.482.482,0,0,1-.339.139H68.748a.483.483,0,1,1,0-.965h1.429L82.4,52.657A4.319,4.319,0,0,1,85.641,51.2H89.02a4.344,4.344,0,1,1,0,8.688H87.591L75.372,71.943A4.319,4.319,0,0,1,72.127,73.4Zm0,0" transform="translate(-64.407 -51.199)"/>
      <path id="Path_246" data-name="Path 246" d="M39.925,103.673H36.546a2.413,2.413,0,0,1,0-4.827h2.3l12.8-12.715a2.393,2.393,0,0,1,1.793-.8h3.379a2.413,2.413,0,1,1,0,4.827h-2.3l-12.8,12.715A2.394,2.394,0,0,1,39.925,103.673Zm-3.379-3.861a1.448,1.448,0,1,0,0,2.9h3.379a1.449,1.449,0,0,0,1.09-.494l12.96-12.88a.483.483,0,0,1,.34-.14h2.5a1.448,1.448,0,1,0,0-2.9H53.439a1.449,1.449,0,0,0-1.09.494l-12.96,12.88a.483.483,0,0,1-.34.14Zm0,0" transform="translate(-32.205 -83.401)"/>
      <path id="Path_247" data-name="Path 247" d="M94.528,170.338H94.35a.483.483,0,0,1-.483-.483v-5.309a2.413,2.413,0,1,1,4.826,0v1.675a.483.483,0,1,1-.965,0v-1.675a1.448,1.448,0,1,0-2.9,0v4.934a.483.483,0,0,1-.3.857Zm0,0" transform="translate(-86.298 -158.064)"/>
      <path id="Path_248" data-name="Path 248" d="M104.329,114.795a1.931,1.931,0,1,1,1.931-1.931A1.931,1.931,0,0,1,104.329,114.795Zm0-2.9a.965.965,0,1,0,.965.965A.965.965,0,0,0,104.329,111.9Zm0,0" transform="translate(-94.347 -109.761)"/>
    </g>
    <g id="Group_71" data-name="Group 71" transform="translate(284.551 589.272)">
      <g id="Group_57" data-name="Group 57">
        <path id="Path_211" data-name="Path 211" d="M308.86,44.013l-1.846-5.126a3.891,3.891,0,0,0-1.535-2.208,3.22,3.22,0,1,0-4.473,0,3.892,3.892,0,0,0-1.535,2.208l-1.846,5.127a2.416,2.416,0,0,0,1.592,3.135v5.734a2.414,2.414,0,0,0,4.026,1.8,2.414,2.414,0,0,0,4.026-1.8V47.148A2.416,2.416,0,0,0,308.86,44.013Zm-5.617-11.258a1.61,1.61,0,1,1-1.61,1.61A1.612,1.612,0,0,1,303.243,32.754Zm3.345,12.882h-.124a.805.805,0,0,0-.805.805v6.441a.805.805,0,0,1-1.61,0V48.051a.805.805,0,1,0-1.61,0v4.831a.805.805,0,1,1-1.61,0V46.441a.805.805,0,0,0-.805-.805H299.9a.806.806,0,0,1-.758-1.078c1.99-5.529,1.868-5.182,1.882-5.24a2.288,2.288,0,0,1,4.44,0c.015.058-.108-.287,1.882,5.24A.806.806,0,0,1,306.588,45.636Z" transform="translate(-297.482 -31.144)"/>
      </g>
    </g>
    <g id="disabled-2" data-name="disabled" transform="translate(475.916 529.301)">
      <path id="Path_249-2" data-name="Path 249" d="M144.86,4.649a2.325,2.325,0,1,0-2.325-2.325A2.327,2.327,0,0,0,144.86,4.649Zm0-3.286a.961.961,0,1,1-.961.961A.962.962,0,0,1,144.86,1.363Zm0,0" transform="translate(-136.146)"/>
      <path id="Path_250-2" data-name="Path 250" d="M13.295,216.163a.681.681,0,0,0-.752.6,5.607,5.607,0,1,1-7.5-5.883.682.682,0,0,0-.469-1.28,6.971,6.971,0,1,0,9.328,7.311A.681.681,0,0,0,13.295,216.163Zm0,0" transform="translate(0 -200.168)"/>
      <path id="Path_251-2" data-name="Path 251" d="M158.643,134.264l-2.144-4.171a.682.682,0,0,0-.606-.37h-3.964v-2.93h3.235a.682.682,0,1,0,0-1.363h-3.235v-1.682a2.091,2.091,0,0,0-4.182,0v5.11a2.232,2.232,0,0,0,2.229,2.229h5.5l1.954,3.8a.682.682,0,0,0,1.213-.623Zm-9.533-5.408v-5.11a.727.727,0,0,1,1.455,0v5.976h-.589A.867.867,0,0,1,149.11,128.857Zm0,0" transform="translate(-141.123 -116.203)"/>
    </g>
    <g id="elevator-2" data-name="elevator" transform="translate(462.084 498.297)">
      <g id="Group_63-2" data-name="Group 63" transform="translate(11.493 0)">
        <path id="Path_215-2" data-name="Path 215" d="M21.426,15.321H15.365V11.637a.468.468,0,0,0-.427-.5H6.906a.468.468,0,0,0-.427.5v3.684H.427a.468.468,0,0,0-.427.5V35.14a.468.468,0,0,0,.427.5H5.051a.4.4,0,0,0,.309-.155.552.552,0,0,0,.117-.369v-.01a.458.458,0,0,0-.447-.469l-.025,0H3.325V16.322H10.5V34.639H8.853a.38.38,0,0,0-.058,0,.471.471,0,0,0-.416.5c0,.008,0,.017,0,.025a.464.464,0,0,0,.426.475H21.426a.468.468,0,0,0,.427-.5V15.821A.468.468,0,0,0,21.426,15.321ZM21,22.624H19.382v-6.3H21Zm0,3.895H19.382V23.625H21ZM.854,16.322H2.471V34.639H.854Zm6.479-1V12.138h7.178v3.184Zm4.02,1h7.175V34.639H11.353Zm8.029,18.317V27.52H21v7.12Z" transform="translate(0 -11.137)"/>
        <path id="Path_216-2" data-name="Path 216" d="M463.3,280.561a.5.5,0,1,0-.189-.6A.5.5,0,0,0,463.3,280.561Z" transform="translate(-443.669 -266.211)"/>
        <path id="Path_217-2" data-name="Path 217" d="M197.306,43.984a.5.5,0,0,0-.754,0l-.679.778a.5.5,0,0,0,.754.658l.3-.346.3.346a.5.5,0,1,0,.754-.658Z" transform="translate(-187.541 -42.178)"/>
        <path id="Path_218-2" data-name="Path 218" d="M271.82,46.421a.5.5,0,0,0,.754,0l.679-.778a.5.5,0,1,0-.754-.658l-.3.346-.3-.346a.5.5,0,0,0-.754.658Z" transform="translate(-259.652 -43.129)"/>
        <path id="Path_219-2" data-name="Path 219" d="M154.462,480.973a.5.5,0,1,0,.2.577A.505.505,0,0,0,154.462,480.973Z" transform="translate(-147.171 -457.387)"/>
      </g>
    </g>
    <g id="staircase-3" data-name="staircase" transform="translate(152.064 654.544)">
      <g id="Group_65-3" data-name="Group 65" transform="translate(0 0)">
        <path id="Path_225-3" data-name="Path 225" d="M22.216,4.585h-2.99a.443.443,0,0,0-.443.443V6.776H16.564V3.569L19.249,1.03a.527.527,0,0,1,.364-.145h2.6a.443.443,0,0,0,0-.885h-2.6a1.409,1.409,0,0,0-.972.387L12.73,5.977a.857.857,0,0,1-.592.235H6.817a1.388,1.388,0,0,0-.927.354L.147,11.708a.443.443,0,1,0,.59.659l2.183-1.954v5.527H.443A.443.443,0,0,0,0,16.382v5.834a.443.443,0,0,0,.443.443h3.1a.443.443,0,0,0,.265-.088l7.318-5.486h5.637a.443.443,0,0,0,.3-.115l1.3-1.186a.443.443,0,0,0-.6-.655L16.59,16.2H10.977a.442.442,0,0,0-.265.088L3.393,21.773H.885V16.825H3.363a.443.443,0,0,0,.443-.443V14.593H6.455A.443.443,0,0,0,6.9,14.15V12.464h5.76a.443.443,0,0,0,.443-.443V9.852h3.014a.457.457,0,0,0,.45-.449V7.661h2.662a.443.443,0,0,0,.443-.443V5.47h2.105v6.017L20.627,12.53a.443.443,0,0,0,.6.655l1.291-1.174a.443.443,0,0,0,.145-.327V5.028a.443.443,0,0,0-.443-.443ZM6.455,11.579a.443.443,0,0,0-.443.443v1.686H3.806V9.62L6.48,7.226A.5.5,0,0,1,6.817,7.1H9.126v4.482H6.455Zm9.224-2.612H12.657a.443.443,0,0,0-.443.443v2.169h-2.2V7.1h2.127a1.739,1.739,0,0,0,1.2-.477l2.341-2.214V8.967Z" transform="translate(0 0)"/>
        <path id="Path_226-3" data-name="Path 226" d="M432.776,310.3a.442.442,0,1,0-.239.578A.446.446,0,0,0,432.776,310.3Z" transform="translate(-412.811 -296.303)"/>
      </g>
    </g>
  </g>
</svg>
